<?xml version="1.0" encoding="UTF-8"?>
<svg width="24px" height="22px" viewBox="0 0 24 22" version="1.1" xmlns="http://www.w3.org/2000/svg" xmlns:xlink="http://www.w3.org/1999/xlink">
    <!-- Generator: sketchtool 41.1 (35376) - http://www.bohemiancoding.com/sketch -->
    <title>6BE1B0AE-54C7-4668-9656-7751A1D7E3A9</title>
    <desc>Created with sketchtool.</desc>
    <defs></defs>
    <g id="Design" stroke="none" stroke-width="1" fill="none" fill-rule="evenodd">
        <g id="Injection-Jorunal---New-Record" transform="translate(-1249.000000, -301.000000)" fill="#A9B4C3">
            <g id="Modal-Box" transform="translate(135.000000, 80.000000)">
                <g id="4.-Options" transform="translate(940.000000, 20.000000)">
                    <g id="2.-Erase" transform="translate(162.000000, 188.000000)">
                        <g id="Icon-(0056)" transform="translate(12.000000, 13.000000)">
                            <path d="M23.2742838,19.9788638 L13.4767635,19.9788638 L23.7598434,9.69590128 C24.0279543,9.42767289 24.0279543,8.99301058 23.7598434,8.7249388 L15.9561631,0.921219385 C15.8273148,0.792488553 15.6527765,0.720175339 15.4706427,0.720175339 C15.2885873,0.720175339 15.1139706,0.792488553 14.9852398,0.921219385 L0.201161501,15.705376 C-0.0670668842,15.9734869 -0.0670668842,16.4081492 0.201161501,16.6763385 L4.67581077,21.1508703 C4.8045416,21.2797186 4.97919739,21.3520318 5.1612137,21.3520318 L23.2742838,21.3520318 C23.653429,21.3520318 23.9608483,21.0446125 23.9608483,20.6654673 C23.9608483,20.2862439 23.653429,19.9788638 23.2742838,19.9788638 Z M15.4706036,2.37770226 L22.3033214,9.21042004 L14.2226427,17.2910595 L7.39000326,10.4583809 L15.4706036,2.37770226 Z M11.5347993,19.9788638 L5.44561175,19.9788638 L1.65752692,16.1907789 L6.41904078,11.4292651 L13.2517586,18.2619828 L11.5347993,19.9788638 Z" id="rubber-icon"></path>
                        </g>
                    </g>
                </g>
            </g>
        </g>
    </g>
</svg>