<?xml version="1.0" encoding="UTF-8"?>
<svg width="19px" height="18px" viewBox="0 0 19 18" version="1.1" xmlns="http://www.w3.org/2000/svg" xmlns:xlink="http://www.w3.org/1999/xlink">
    <!-- Generator: sketchtool 41.1 (35376) - http://www.bohemiancoding.com/sketch -->
    <title>1C1F7519-27EF-41BC-A66D-5A038A00AEE8</title>
    <desc>Created with sketchtool.</desc>
    <defs></defs>
    <g id="Design" stroke="none" stroke-width="1" fill="none" fill-rule="evenodd">
        <g id="Injection-Jorunal---New-Record" transform="translate(-768.000000, -114.000000)" stroke="#FFFFFF" stroke-width="1.5">
            <g id="Modal-Box" transform="translate(135.000000, 80.000000)">
                <g id="3.-Photo" transform="translate(599.000000, 0.000000)">
                    <g id="1.-Undo" transform="translate(20.000000, 20.000000)">
                        <g id="Icon-(0131)" transform="translate(11.000000, 11.000000)">
                            <path d="M14.8513151,19.2626679 C14.4141037,19.4156495 14.1589223,18.7847462 14.5724921,18.5891461 C16.2857162,17.7809835 17.2684877,16.6204226 17.2684877,15.4048392 C17.2684877,13.3519387 14.4306422,11.6788947 10.5175789,11.421381 L10.518109,13.3686892 C10.518109,13.9385271 9.88137486,14.1507718 9.51201392,13.8819144 L4.68042503,9.64433505 C4.33226735,9.39010786 4.3319493,8.87221801 4.68042503,8.6185209 L9.51158985,4.38094159 C9.94742304,4.06405873 10.5175789,4.39726811 10.5175789,4.89384866 L10.518109,6.77479065 C10.530725,6.77479065 10.5420687,6.76959585 10.5548967,6.77086805 C16.2706619,7.34791501 20.4191875,10.176007 20.4191875,13.4943186 C20.4190815,15.857635 18.3374505,18.0141134 14.8513151,19.2626679 Z" id="undo"></path>
                        </g>
                    </g>
                </g>
            </g>
        </g>
    </g>
</svg>